<?xml version="1.0" encoding="utf-8"?>
<!-- Generator: Adobe Illustrator 16.0.0, SVG Export Plug-In . SVG Version: 6.00 Build 0)  -->
<!DOCTYPE svg PUBLIC "-//W3C//DTD SVG 1.1//EN" "http://www.w3.org/Graphics/SVG/1.1/DTD/svg11.dtd">
<svg version="1.1" id="Layer_1" xmlns="http://www.w3.org/2000/svg" xmlns:xlink="http://www.w3.org/1999/xlink" x="0px" y="0px"
	 width="2000px" height="1000px" viewBox="0 0 2000 1000" enable-background="new 0 0 2000 1000" xml:space="preserve">
<g>
	<g>
		<g>
			<path fill="#FFFFFF" d="M883.944,434.437c-11.838,0.53-21.439-5.133-25.051-16.661c-3.642-11.622-0.789-24.871,4.537-35.493
				c6.22-12.406,17.009-22.179,30.421-26.073c16.128-4.684,33.637,0.629,48.212,7.795c7.93,3.898,17.958,10.261,19.196,19.93
				c1.023,7.992-4.267,15.107-9.668,20.37c-15.075,14.688-38.287,23.07-59.024,24.394c-9.807,0.625-21.083-0.409-28.977-6.886
				c-8.916-7.315-9.436-19.515-7.479-30.045c0.585-3.15-4.233-4.496-4.821-1.328c-1.883,10.131-1.904,21.302,4.296,30.042
				c5.218,7.356,13.776,11.127,22.45,12.56c21.119,3.489,44.378-3.751,62.504-14.345c13.422-7.846,31.844-23.569,23.987-41.159
				c-4.452-9.965-15.155-15.906-24.695-20.043c-14.92-6.47-31.244-10.457-47.31-6.105c-22.35,6.054-37.343,27.675-39.883,49.976
				c-1.062,9.317,0.466,19.551,6.098,27.257c5.904,8.08,15.479,11.252,25.207,10.816
				C887.155,439.293,887.169,434.292,883.944,434.437L883.944,434.437z"/>
		</g>
	</g>
	<g>
		<g>
			<path fill="#FFFFFF" d="M985.934,358.177c-1.46-2.489-2.921-4.979-4.383-7.468c-1.479-2.52-5.155-0.797-4.569,1.927
				c5.771,26.833,15.001,53.391,14.459,81.15c1.637-0.222,3.274-0.443,4.911-0.664c-3.162-18.174-1.722-37.614,1.979-55.581
				c3.512-17.048,10.343-37.849,26.889-46.431c6.63-3.438,16.022-5.123,23.224-2.703c5.516,1.853,8.651,7.202,10.355,12.424
				c4.297,13.161,2.401,28.323,1.149,41.832c-0.616,6.656-1.578,13.399-1.381,20.098c0.095,3.217,5.095,3.227,5,0
				c-0.365-12.408,2.143-24.892,2.573-37.295c0.423-12.151,0.164-26.914-8.306-36.582c-9.352-10.676-27.917-6.893-38.39-0.214
				c-14.924,9.516-21.625,28.812-25.416,45.163c-4.521,19.499-5.942,40.828-2.499,60.617c0.498,2.863,4.857,2.063,4.911-0.664
				c0.55-28.213-8.773-55.209-14.638-82.48c-1.523,0.643-3.046,1.285-4.569,1.927c1.461,2.489,2.922,4.979,4.383,7.468
				C983.247,363.479,987.569,360.964,985.934,358.177L985.934,358.177z"/>
		</g>
	</g>
	<g>
		<g>
			<path fill="#FFFFFF" d="M1110.479,312.531c-0.918-3.87-2.435-7.546-3.354-11.416c-0.803,1.055-1.606,2.109-2.41,3.164
				c8.671-0.544,17.405-0.286,26.068,0.258c10.236,0.643,20.869,1.698,30.551,5.282c23.617,8.741,18.544,40.76,22.48,60.241
				c1.225-0.94,2.449-1.882,3.673-2.822c-18.459-9.336-39.405-23.62-61.132-19.122c-20.153,4.173-32.395,27.975-29.309,47.217
				c1.461,9.104,8.223,16.643,16.564,20.185c7.928,3.367,16.433,1.426,23.953-2.026c17.002-7.806,29.208-23.341,42.446-35.97
				c2.337-2.229-1.204-5.76-3.535-3.535c-11.181,10.665-21.237,22.474-34.212,31.095c-6.357,4.225-13.641,7.607-21.427,7.159
				c-9.185-0.529-16.599-8.607-18.727-17.058c-4.595-18.245,10.081-40.43,28.609-42.771c19.034-2.405,38.099,10.979,54.244,19.143
				c2.017,1.021,4.115-0.631,3.673-2.822c-4.332-21.432,0.556-50.379-22.839-62.384c-8.917-4.575-19.925-5.493-29.738-6.403
				c-10.372-0.963-20.94-1.318-31.345-0.666c-1.651,0.104-2.803,1.514-2.41,3.164c0.918,3.871,2.435,7.547,3.354,11.418
				C1106.401,316.998,1111.223,315.667,1110.479,312.531L1110.479,312.531z"/>
		</g>
	</g>
	<g>
		<g>
			<g>
				<path fill="#FFFFFF" d="M1264.834,164.728c1.714-6.583,3.428-13.166,5.143-19.75c-1.607-0.442-3.215-0.886-4.822-1.328
					c-5.088,19.608-8.736,39.652-12.115,59.613c-4.89,28.886-8.743,58.052-10.2,87.327c-1.326,26.636-3.315,108.562,45.318,84.924
					c8.345-4.056,15.756-10.061,22.659-16.181c2.418-2.143-1.132-5.666-3.535-3.535c-11.565,10.253-34.662,29.203-48.496,12.123
					c-5.606-6.923-7.682-16.711-9.147-25.257c-2.123-12.379-2.409-25.087-2.259-37.618c0.354-29.469,3.934-58.918,8.459-88.005
					c3.477-22.345,7.554-44.665,12.799-66.668c0.43-1.803,0.874-3.602,1.34-5.396c0.811-3.123-4.01-4.447-4.822-1.328
					c-1.714,6.583-3.428,13.166-5.143,19.75C1259.199,166.523,1264.021,167.846,1264.834,164.728L1264.834,164.728z"/>
			</g>
		</g>
		<g>
			<g>
				<path fill="#FFFFFF" d="M1210.561,285.398c-1.555,0.34-4.762,0.606-5.558,2.354c-0.442,0.972-0.516,2.256,0.391,3.029
					c2.935,2.504,10.265,0.326,13.623-0.152c9.515-1.358,18.996-4.135,28.37-6.3c28.662-6.617,57.106-14.145,85.549-21.64
					c3.115-0.821,1.792-5.645-1.33-4.822c-25.939,6.837-51.883,13.663-77.982,19.867c-10.551,2.509-21.238,4.62-31.724,7.308
					c-2.528,0.648-5.181,0.922-7.769,1.212c-1.287,0.145-2.576,0.254-3.867,0.345c-0.586,0.041-1.172,0.062-1.759,0.075
					c-1.244,0.029-0.745-0.426,0.425,0.572c0.13,1.01,0.26,2.02,0.391,3.029c-0.5,1.096-1.589,0.992-0.039,0.553
					c0.857-0.244,1.738-0.418,2.607-0.607C1215.039,289.533,1213.703,284.712,1210.561,285.398L1210.561,285.398z"/>
			</g>
		</g>
	</g>
	<g>
		<g>
			<path fill="#FFFFFF" d="M1373.33,118.392c-13.489,77.951-3.852,157.816,4.056,235.826c0.263,2.596,4.364,3.647,4.911,0.664
				c3.17-17.307,5.154-34.778,9.113-51.946c3.94-17.084,9.465-37.157,23.543-48.806c5.416-4.481,13.169-6.994,20.02-4.777
				c6.151,1.99,9.872,8.402,12.409,13.898c6.886,14.912,8.227,32.481,10.365,48.559c0.917,6.891,1.687,13.922,3.601,20.625
				c0.431,1.505,2.292,2.375,3.673,1.494c4.355-2.779,8.454-6.847,10.159-11.803c1.053-3.057-3.777-4.358-4.82-1.328
				c-1.252,3.636-4.684,6.785-7.862,8.813c1.224,0.498,2.448,0.996,3.673,1.494c-4.034-14.124-4.444-29.317-6.979-43.755
				c-2.345-13.354-5.595-30.637-16.936-39.555c-11.514-9.054-26.813-2.32-35.517,7.298c-12.134,13.408-17.14,32.843-20.944,50.032
				c-3.545,16.016-5.366,32.311-8.319,48.429c1.638,0.221,3.274,0.442,4.911,0.664c-7.854-77.494-17.636-157.054-4.233-234.498
				C1378.697,116.568,1373.88,115.219,1373.33,118.392L1373.33,118.392z"/>
		</g>
	</g>
	<g>
		<g>
			<path fill="#FFFFFF" d="M1511.557,224.177c-1.033-3.72,4.333-7.524,6.81-9.338c5.436-3.98,11.764-6.766,18.134-8.853
				c6.07-1.988,12.462-3.137,18.857-2.732c6.257,0.395,10.887,3.882,14.573,8.74c8.14,10.729,11.41,25.099,14.167,38.01
				c2.508,11.75,3.891,23.691,6.219,35.47c1.025-1.024,2.051-2.05,3.076-3.074c-22.213-5.85-46.569-15.478-69.686-8.934
				c-8.59,2.432-17.028,8.462-22.927,15.121c-3.368,3.803-5.745,8.576-4.653,13.731c2.355,11.124,19.323,14.421,28.406,15.882
				c15.591,2.508,32.193,1.99,47.501-1.967c4.688-1.212,9.296-2.938,13.516-5.322c2.807-1.585,0.287-5.905-2.523-4.316
				c-12.54,7.084-28.365,8.262-42.468,8.008c-11.644-0.209-28.053-1.153-37.12-9.594c-10.735-9.992,13.437-23.844,20.292-26.304
				c21.753-7.807,47.276,2.97,68.332,8.515c1.942,0.512,3.44-1.23,3.076-3.074c-2.807-14.197-4.444-28.564-7.853-42.653
				c-3.257-13.466-7.936-29.526-19.211-38.574c-10.906-8.753-27.831-4.14-39.426,0.662c-7.389,3.06-24.9,11.176-21.915,21.927
				C1507.597,228.609,1512.421,227.291,1511.557,224.177L1511.557,224.177z"/>
		</g>
	</g>
	<g>
		<g>
			<path fill="#FFFFFF" d="M1622.029,184.41c-0.119,14.576,0.594,29.179,1.803,43.7c1.468,17.632,3.532,35.773,9.236,52.604
				c0.956,2.822,4.557,2.065,4.91-0.665c2.328-18.01,3.53-36.142,7.948-53.818c4.336-17.35,12.586-36.1,30.301-43.176
				c8.341-3.332,18.472-4.146,26.768-0.308c7.323,3.389,12.123,10.249,15.622,17.256c7.778,15.58,9.698,33.635,13.39,50.447
				c1.558,7.089,3.557,14.123,6.178,20.895c1.962,5.071,4.404,10.703,8.713,14.237c12.54,10.288,21.567-15.279,24.319-22.876
				c1.102-3.038-3.731-4.336-4.82-1.328c-1.313,3.621-7.783,24.324-15.004,21.196c-5.982-2.592-8.674-12.953-10.485-18.437
				c-5.441-16.47-7.188-33.858-11.926-50.517c-4.202-14.777-11.292-30.636-26.582-36.509c-16.058-6.168-35.216,1.856-45.777,14.312
				c-10.021,11.819-14.551,27.58-17.534,42.48c-3.051,15.238-4.12,30.756-6.109,46.145c1.637-0.222,3.273-0.443,4.91-0.665
				c-5.572-16.445-7.57-34.056-9.057-51.274c-1.253-14.513-1.922-29.131-1.803-43.7
				C1627.056,181.184,1622.056,181.187,1622.029,184.41L1622.029,184.41z"/>
		</g>
	</g>
	<g>
		<g>
			<path fill="#FFFFFF" d="M990.868,608.98c-5.968,6.102-7.794,15.58-9.099,23.68c-2.028,12.592-2.278,25.463-2.091,38.188
				c0.354,24.127,2.12,49.17,7.776,72.701c0.753,3.135,5.575,1.805,4.821-1.328c-5.373-22.355-6.983-45.979-7.548-68.893
				c-0.306-12.438-0.113-25.014,1.57-37.359c1.046-7.672,2.424-17.643,8.106-23.453C996.658,610.209,993.125,606.672,990.868,608.98
				L990.868,608.98z"/>
		</g>
	</g>
	<g>
		<g>
			<path fill="#FFFFFF" d="M1009.464,608.41c-3.481,0.369-8.651,0.941-9.765-3.328c-0.985-3.773,1.357-8.732,2.823-12.084
				c3.823-8.744,8.86-16.512,15.781-23.109c15.854-15.109,38.28-23.402,59.726-26.082c21.094-2.635,40.993,1.203,58.685,13.098
				c11.223,7.545,21.314,18.672,20.19,33.031c-0.949,12.113-9.723,22.746-17.931,30.971c-11.196,11.219-24.571,20.201-38.168,28.227
				c-23.679,13.977-50.321,26.939-77.375,32.77c0.642,1.523,1.283,3.047,1.926,4.57c11.867-9.105,25.84-13.441,39.954-6.814
				c13.853,6.506,24.102,19.691,32.64,31.932c10.003,14.344,18.368,29.773,26.885,45.02c6.938,12.42,13.745,25.344,22.981,36.252
				c8.341,9.852,19.018,18.721,31.034,23.654c11.897,4.883,24.392,5.611,36.959,3.23c27.873-5.279,52.369-23.936,75.922-38.611
				c2.729-1.701,0.222-6.029-2.523-4.318c-21.696,13.52-43.292,29.25-68.109,36.506c-11.251,3.289-22.983,3.852-34.323,0.719
				c-13.46-3.717-24.274-12.891-33.704-22.793c-9.603-10.086-16.186-23.359-22.933-35.4c-8.539-15.236-16.893-30.611-26.704-45.084
				c-9.406-13.873-20.776-28.459-36.311-35.756c-15.375-7.221-31.304-2.818-44.291,7.146c-2.195,1.684-0.997,5.199,1.926,4.57
				c12.263-2.643,24.152-7.201,35.705-12.002c15.375-6.391,30.337-13.814,44.647-22.328c13.857-8.246,27.317-17.682,38.65-29.217
				c8.785-8.943,16.522-19.85,18.075-32.576c1.589-13.014-6.01-24.449-15.455-32.594c-14.624-12.609-32.509-19.18-51.694-19.943
				c-21.143-0.842-42.798,4.803-61.305,14.896c-17.031,9.287-29.505,23.008-36.647,41.027c-1.68,4.238-3.331,9.943-1.199,14.326
				c2.566,5.275,8.774,5.643,13.928,5.096C1012.637,613.074,1012.669,608.072,1009.464,608.41L1009.464,608.41z"/>
		</g>
	</g>
	<g>
		<g>
			<path fill="#FFFFFF" d="M1200.344,695.988c-7.25-1.695-14.626-4.729-18.474-11.488c-2.93-5.148-2.147-11.354-0.116-16.646
				c4.842-12.617,18.595-21.551,31.894-21.742c24.138-0.346,53.819,39.09,29.656,57.674c-12.526,9.635-31.39,10.328-45.902,5.504
				c-7.32-2.436-14.075-6.973-18.066-13.68c-4.722-7.936-3.88-17.521-1.212-25.984c0.972-3.084-3.855-4.395-4.822-1.33
				c-3.56,11.291-3.455,23.754,4.155,33.387c6.709,8.492,17.257,12.955,27.713,14.637c18.769,3.018,47.076-2.641,51.551-24.646
				c2.71-13.33-5.335-27.105-13.906-36.598c-10.524-11.654-26.14-17.035-41.244-11.854c-11.993,4.113-22.391,14.381-25.753,26.707
				c-3.584,13.137,4.213,23.771,16.056,28.707c2.301,0.959,4.722,1.607,7.144,2.174
				C1202.152,701.541,1203.483,696.721,1200.344,695.988L1200.344,695.988z"/>
		</g>
	</g>
	<g>
		<g>
			<path fill="#FFFFFF" d="M1323.143,632.863c1.469-5.982,2.581-13.641-2.421-18.338c-4.246-3.986-11.016-2.873-15.981-1.191
				c-16.281,5.514-27.075,20.922-30.399,37.324c-3.014,14.865,4.501,27.324,18.187,33.033c15.605,6.512,34.607,3.023,49.321-4.096
				c2.902-1.404,0.365-5.715-2.523-4.316c-12.559,6.074-27.282,8.627-40.942,5.1c-11.987-3.096-20.268-12.082-19.674-24.779
				c0.669-14.297,9.962-28.133,22.199-35.076c4.061-2.303,9.385-4.508,14.136-3.459c6.198,1.369,4.316,10.236,3.278,14.471
				C1317.554,634.666,1322.375,635.994,1323.143,632.863L1323.143,632.863z"/>
		</g>
	</g>
	<g>
		<g>
			<path fill="#FFFFFF" d="M1369.455,517.051c-11.307,22.586-10.858,51.078-9.646,75.654c1.307,26.52,4.861,54.156,13.846,79.268
				c0.557,1.559,2.921,2.723,4.178,1.104c9.515-12.252,14.416-28.268,21.014-42.154c3.71-7.809,7.737-15.549,12.886-22.518
				c4.187-5.668,9.948-11.307,17.516-10.148c15.694,2.404,20.677,23.936,23.222,36.73c1.506,7.568,2.346,15.254,2.963,22.939
				c0.261,3.252-0.243,6.023,2.528,8.121c3.344,2.529,5.327-2,7.972-2.844c3.059-0.977,1.751-5.805-1.33-4.822
				c-1.174,0.375-2.252,0.736-3.21,1.545c-0.479,0.354-0.905,0.76-1.279,1.221c-0.812,0.885,1.147,1.17-0.538-0.105
				c0.413,0.719,0.825,1.439,1.238,2.158c-1.006-14.891-2.567-29.992-7.343-44.211c-4.054-12.066-13.634-28.18-28.823-25.84
				c-14.419,2.221-22.852,20.535-28.544,32.004c-4.043,8.146-7.616,16.52-11.365,24.803c-2.999,6.629-5.944,13.795-10.44,19.586
				c1.393,0.367,2.785,0.734,4.178,1.104c-8.706-24.338-12.117-50.869-13.592-76.551c-0.793-13.799-0.733-27.682,0.627-41.443
				c1.109-11.215,3.176-22.914,8.264-33.076C1375.212,516.699,1370.899,514.166,1369.455,517.051L1369.455,517.051z"/>
		</g>
	</g>
	<g>
		<g>
			<path fill="#FFFFFF" d="M1485.084,564.988c14.521-8.645,43.631-30.68,58.203-11.439c6.749,8.91,9.398,21.078,11.946,31.73
				c2.384,9.965,3.887,20.217,6.886,30.025c1.224-0.941,2.447-1.883,3.672-2.824c-16.771-10.742-38.102-18.074-58.16-17.09
				c-9.578,0.469-18.709,3.754-25.475,10.68c-7.433,7.605-10.477,18.42-6.646,28.477c8.07,21.188,32.968,21.926,51.357,16.541
				c20.656-6.051,39.076-18.465,56.855-30.209c1.101-0.727,2.204-1.453,3.309-2.174c2.687-1.758,0.184-6.09-2.523-4.318
				c-15.168,9.922-30.215,20.055-46.854,27.404c-17.063,7.539-40.011,13.105-53.93-3.021c-7.804-9.041-5.472-20.848,1.968-29.164
				c6.469-7.234,16.434-9.266,25.72-9.318c17.901-0.104,36.915,6.941,51.855,16.512c1.843,1.18,4.303-0.762,3.672-2.824
				c-3.353-10.969-4.987-22.457-7.753-33.584c-2.776-11.17-6.13-23.904-14.209-32.537c-8.091-8.645-21.043-7.266-31.2-3.85
				c-11.319,3.807-21.056,10.619-31.217,16.668C1479.793,562.318,1482.307,566.643,1485.084,564.988L1485.084,564.988z"/>
		</g>
	</g>
	<g>
		<g>
			<path fill="#FFFFFF" d="M529.742,248.283c-8.818-17.607,14.964-25.201,27.772-28.37c21.874-5.413,43.952-3.728,66.265-2.684
				c58.233,2.726,116.948,7.33,173.79-8.882c29.14-8.311,55.785-23.538,82-38.418c30.77-17.466,61.741-36.329,88.072-60.148
				c16.182-14.639,36.919-37.482,19.608-59.141c-16.036-20.063-47.156,5.617-60.091,16.653
				c-20.969,17.892-40.023,39.131-56.118,61.509c-7.357,10.229-12.091,22.417-16.875,33.995
				c-6.778,16.404-12.319,33.304-17.017,50.413c-20.233,73.694-24.688,150.978-29.011,226.92
				c-4.425,77.741-7.312,156.225-23.21,232.682c-14.524,69.85-41.929,138.17-94.065,188.523
				c-51.706,49.938-120.123,74.949-190.208,84.832c-73.172,10.318-150.295,6.635-221.228-14.711
				c-64.662-19.459-128.234-57.906-155.054-122.727c-15.241-36.834-17.847-79.305-10.77-118.279
				c7.436-40.951,26.629-78.701,51.532-111.736c52.34-69.436,128.682-119.546,205.789-157.569
				c22.322-11.008,45.146-20.994,68.356-29.975c2.974-1.15,1.683-5.986-1.329-4.82c-78.273,30.284-154.033,71.433-217.549,126.708
				c-62.491,54.381-113.395,127.393-115.385,212.828c-0.863,37.068,6.972,74.781,25.796,106.938
				c16.593,28.344,41.153,51.158,68.755,68.602C260.874,940.172,336.48,954.18,408,956.195c67.769,1.912,139.072-6.619,201.389-34.6
				c34.516-15.498,66.263-37.027,92.569-64.287c24.246-25.125,43.219-54.881,57.513-86.652
				c30.513-67.814,40.421-143.207,46.487-216.662c6.484-78.52,7.633-157.459,16.816-235.759
				c4.348-37.068,10.663-74.021,20.946-109.936c4.902-17.121,10.788-33.981,17.871-50.324c4.604-10.621,9.377-20.841,16.31-30.113
				c17.197-23,37.255-45.082,59.874-62.838c9.218-7.235,20.791-15.624,32.924-16.399c10.462-0.669,17.743,9.04,18.451,18.872
				c0.785,10.888-8.042,21.243-14.859,28.7c-11.114,12.155-24.365,22.368-37.713,31.927c-28.328,20.288-58.765,37.736-89.602,53.895
				c-9.655,5.059-19.386,10.486-29.57,14.42c-28.221,10.901-58.126,16.284-88.247,18.072c-29.123,1.729-58.336,0.117-87.431-1.382
				c-24.255-1.251-49.271-4.169-73.396-0.441c-18.058,2.791-55.906,12.163-42.907,38.119
				C526.869,253.69,531.182,251.157,529.742,248.283L529.742,248.283z"/>
		</g>
	</g>
</g>
</svg>
