<?xml version="1.0" encoding="utf-8"?>
<!-- Generator: Adobe Illustrator 16.0.0, SVG Export Plug-In . SVG Version: 6.00 Build 0)  -->
<!DOCTYPE svg PUBLIC "-//W3C//DTD SVG 1.1//EN" "http://www.w3.org/Graphics/SVG/1.1/DTD/svg11.dtd">
<svg version="1.1" id="Layer_1" xmlns="http://www.w3.org/2000/svg" xmlns:xlink="http://www.w3.org/1999/xlink" x="0px" y="0px"
	 width="478.477px" height="184px" viewBox="0 0 478.477 184" enable-background="new 0 0 478.477 184" xml:space="preserve">
<path fill="#FFFFFF" d="M476.612,183.5c6.842-23.088-12.826-52.164-40.873-50.277c2.441-35.201-30.906-65.983-61.049-58.93
	c-13.994-25.271-33.896-37.021-64.83-37.021c-3.516,0-6.979,0.221-10.375,0.65C286.34,15.533,262.019,0.5,234.18,0.5
	c-33.844,0-62.496,22.217-72.175,52.861c-11.451-6.692-24.773-10.531-38.993-10.531c-39.817,0-72.605,30.07-76.906,68.74
	C14.609,120.469,0.5,149.328,0.5,183.5H476.612z"/>
</svg>
